<?xml version="1.0" encoding="UTF-8"?>
<!DOCTYPE svg PUBLIC "-//W3C//DTD SVG 1.1//EN" "http://www.w3.org/Graphics/SVG/1.1/DTD/svg11.dtd">
<!-- Creator: CorelDRAW X8 -->
<svg xmlns="http://www.w3.org/2000/svg" xml:space="preserve" width="164.599mm" height="112.776mm" version="1.1" style="shape-rendering:geometricPrecision; text-rendering:geometricPrecision; image-rendering:optimizeQuality; fill-rule:evenodd; clip-rule:evenodd"
viewBox="0 0 17312 11861"
 xmlns:xlink="http://www.w3.org/1999/xlink">
 <defs>
  <style type="text/css">
   <![CDATA[
    .str0 {stroke:black;stroke-width:78.8827}
    .fil2 {fill:none}
    .fil0 {fill:black}
    .fil1 {fill:black;fill-rule:nonzero}
   ]]>
  </style>
 </defs>
 <g id="Capa_x0020_1">
  <metadata id="CorelCorpID_0Corel-Layer"/>
  <path class="fil0" d="M7214 63c-1333,281 -2433,1256 -2857,2525 -148,441 -190,779 -172,1357 12,436 27,558 104,854 216,836 643,1488 1295,1977 270,205 797,462 1097,539 584,149 2199,155 2830,9 273,-62 810,-332 1044,-527 107,-89 264,-246 350,-350 210,-258 486,-827 581,-1195 189,-732 88,-1736 -241,-2430l-97 -207 74 -9c92,-12 243,47 471,183 95,60 190,107 207,107 24,0 30,-47 21,-142l-15 -139 74 148c69,139 312,400 374,400 15,0 41,-56 53,-128l27 -124 65 213c45,149 92,232 148,276l80 65 18 -71c18,-68 18,-68 54,15 17,47 32,92 32,101 0,9 51,97 110,198l112 181 21 -193c68,-569 -187,-1079 -658,-1316 -270,-133 -480,-175 -836,-160 -160,6 -272,0 -249,-12 33,-17 258,-83 715,-204l118 -33 -103 -56c-128,-65 -57,-74 118,-12 80,30 169,39 234,27 148,-27 163,-39 104,-104 -74,-80 -44,-89 92,-27 92,45 184,57 400,57l282 0 -175 -163c-249,-229 -445,-314 -765,-332 -151,-9 -314,0 -400,20 -237,60 -557,232 -732,392 -92,83 -166,139 -166,124 0,-41 160,-284 216,-332 74,-59 62,-92 -32,-92 -83,0 -83,-3 71,-160 86,-86 169,-186 189,-225 33,-62 30,-65 -65,-47 -89,17 -95,17 -41,-24 71,-56 421,-397 536,-522l89 -95 -210 12c-439,30 -842,314 -993,700 -57,136 -68,228 -71,486 0,175 -9,308 -18,296 -12,-12 -86,-103 -169,-201 -291,-353 -691,-546 -1129,-546 -335,0 -685,119 -907,312l-89 74 237 0c130,-3 373,6 539,17 199,12 332,9 397,-14 157,-54 137,-9 -26,62 -83,38 -154,77 -154,86 0,41 275,92 417,80 155,-15 155,-15 83,38 -68,51 -68,54 -11,72 118,41 578,260 578,278 0,9 -113,12 -252,6 -516,-21 -857,92 -1144,379 -282,285 -457,747 -436,1165l9 175 154 -231c86,-127 169,-285 184,-350l26 -118 3 98c3,65 15,94 42,88 62,-20 287,-379 287,-462 3,-71 6,-74 33,-24 18,30 27,107 18,169 -9,66 -6,116 6,116 35,0 290,-279 376,-415l86 -133 9 112 9 110 80 -54c44,-29 160,-97 258,-154l178 -97 -128 139c-187,201 -412,566 -483,782 -50,154 -62,240 -50,475 8,249 23,317 109,501 57,118 110,216 122,216 29,0 118,-323 118,-427 0,-47 12,-74 30,-62 53,32 95,-142 80,-341l-18 -193 51 95c23,54 56,98 68,98 47,0 124,-270 142,-504l18 -252 38 125c21,71 51,127 66,127 38,0 148,-222 148,-302 0,-71 139,-291 184,-291 41,0 139,240 225,558 71,266 77,331 77,939 0,626 -3,661 -80,913 -193,628 -540,1132 -1035,1503 -598,453 -1325,684 -2125,684 -492,0 -726,-32 -1129,-151 -391,-118 -442,-145 -267,-148 234,-3 388,-56 854,-290 427,-214 471,-229 676,-237 174,-9 281,5 512,68 418,115 617,56 291,-89 -620,-273 -990,-255 -1544,71 -439,258 -670,311 -1127,270 -267,-27 -296,-36 -444,-149 -89,-65 -240,-192 -335,-281l-172 -166 178 24c284,38 661,14 880,-51 107,-32 347,-127 528,-207 450,-205 637,-252 978,-249 311,3 406,26 978,267 320,133 355,142 607,145 163,0 303,-15 356,-42 89,-38 89,-38 21,-65 -36,-15 -157,-33 -267,-44 -270,-24 -442,-75 -803,-235 -377,-166 -599,-222 -907,-222 -320,0 -640,83 -1100,282 -210,92 -462,186 -560,207 -231,57 -608,57 -880,0 -252,-53 -276,-77 -469,-436 -103,-192 -115,-234 -71,-222 184,56 498,86 720,71 297,-23 451,-65 937,-258 468,-186 625,-222 963,-219 350,0 578,62 1201,323 705,294 892,344 1292,362 282,15 359,9 439,-33 169,-89 101,-121 -311,-139 -451,-24 -555,-53 -1358,-382 -685,-282 -925,-338 -1390,-321 -356,12 -291,-6 -1236,341 -299,107 -326,113 -682,113 -480,0 -696,-59 -756,-205 -50,-121 -145,-489 -130,-506 6,-6 107,8 219,35 273,59 721,59 967,0 106,-27 394,-127 637,-225 542,-217 723,-255 1117,-231 320,17 540,80 913,255 273,130 513,171 691,121 77,-21 133,-44 124,-50 -6,-9 -118,-42 -246,-74 -278,-72 -758,-288 -738,-332 154,-344 175,-430 190,-730 9,-231 0,-361 -39,-503 -157,-605 -652,-1100 -1221,-1216 -240,-50 -667,-23 -883,54 -1043,379 -1411,1707 -708,2567l130 163 -110 23c-186,39 -604,24 -844,-35 -226,-51 -232,-57 -249,-154 -39,-196 9,-987 71,-1225 172,-643 438,-1129 874,-1588 569,-602 1284,-984 2108,-1127 358,-62 1031,-41 1354,45 542,142 1008,385 1470,771 178,148 237,183 273,160 107,-69 71,-146 -151,-338 -433,-374 -943,-641 -1500,-789 -246,-65 -362,-77 -821,-86 -471,-9 -572,-3 -860,60l0 0zm-148 1722c652,172 1091,803 1044,1511 -15,237 -113,578 -178,635 -24,17 -95,14 -214,-15 -231,-54 -661,-54 -904,3 -106,23 -370,112 -590,198l-397 154 -133 -145c-522,-575 -483,-1488 86,-2012 353,-329 824,-448 1286,-329l0 0z"/>
  <path class="fil1" d="M576 9309l935 0 0 -596c0,-49 -1,-89 -3,-120 -2,-31 -5,-56 -11,-76 -5,-20 -14,-36 -24,-48 -11,-11 -26,-22 -44,-33 -44,-24 -89,-36 -135,-36l-72 0 0 -57 867 0 -2 57 -71 0c-19,0 -39,2 -60,6 -21,4 -41,10 -60,20 -18,9 -35,20 -50,34 -14,14 -25,31 -32,50 -11,34 -16,101 -16,203l0 1344c0,49 1,89 3,120 2,30 5,56 11,76 6,20 13,36 24,47 10,11 24,22 43,32 42,25 88,37 137,37l71 0 0 57 -865 0 0 -57 72 0c81,0 141,-25 180,-76 25,-31 37,-110 37,-236l0 -635 -935 0 0 635c0,49 1,89 3,120 2,30 6,56 11,75 6,19 14,35 25,47 10,12 25,23 43,33 42,25 87,37 135,37l72 0 0 57 -865 0 0 -57 72 0c84,0 145,-25 182,-76 24,-31 35,-110 35,-236l0 -1344c0,-49 -1,-89 -3,-120 -2,-30 -5,-56 -11,-76 -5,-20 -13,-36 -24,-48 -10,-11 -24,-22 -42,-33 -44,-24 -90,-36 -137,-36l-72 0 0 -57 865 0 0 57 -72 0c-20,0 -40,2 -61,6 -20,4 -39,10 -58,20 -18,9 -34,20 -48,34 -15,14 -25,31 -32,50 -12,33 -18,100 -18,203l0 596z"/>
  <path id="1" class="fil1" d="M3262 8296c261,0 487,103 680,309 192,204 288,460 288,767 0,316 -97,578 -290,788 -193,208 -427,313 -702,313 -278,0 -512,-102 -700,-306 -189,-203 -283,-467 -283,-791 0,-330 110,-600 327,-809 190,-181 416,-271 680,-271zm-28 113c-102,0 -193,23 -272,68 -79,44 -146,109 -200,192 -54,83 -95,184 -123,303 -28,119 -42,251 -42,399 0,146 13,280 41,401 28,122 69,226 123,314 54,87 120,155 199,204 80,48 171,73 275,73 94,0 180,-19 260,-55 79,-37 148,-94 207,-171 58,-78 104,-176 137,-296 33,-120 50,-262 50,-427 0,-159 -14,-300 -41,-425 -27,-124 -68,-229 -123,-315 -55,-86 -124,-151 -206,-197 -81,-45 -176,-68 -285,-68z"/>
  <path id="2" class="fil1" d="M6409 10426l-539 0 -684 -976c-26,1 -49,2 -70,3 -20,0 -38,0 -54,0 -13,0 -27,0 -42,0 -15,-1 -30,-2 -46,-3l0 606c0,132 14,213 42,245 37,45 94,68 169,68l78 0 0 57 -862 0 0 -57 76 0c84,0 145,-29 183,-86 20,-32 31,-107 31,-226l0 -1345c0,-132 -14,-213 -42,-245 -39,-45 -96,-67 -172,-67l-76 0 0 -57 736 0c212,0 370,16 473,49 51,15 98,39 143,69 44,31 82,67 115,109 34,42 60,89 80,141 19,52 29,108 29,167 0,65 -11,125 -30,181 -20,55 -51,106 -92,152 -41,46 -93,86 -156,120 -63,34 -136,61 -221,80l417 598c97,139 179,230 246,274 70,45 159,74 268,86l0 57zm-1435 -1072c19,0 36,1 49,1 14,1 26,1 35,1 96,0 181,-12 254,-35 73,-23 134,-55 183,-96 49,-41 85,-89 110,-145 24,-55 36,-116 36,-182 0,-64 -10,-123 -31,-177 -21,-53 -50,-100 -89,-139 -38,-39 -84,-69 -137,-91 -53,-21 -112,-32 -175,-32 -29,0 -63,2 -102,7 -39,5 -83,12 -133,23l0 865z"/>
  <path id="3" class="fil1" d="M7323 10369l0 57 -865 0 0 -57 72 0c84,0 145,-25 182,-76 24,-31 35,-110 35,-236l0 -1345c0,-50 -1,-90 -3,-121 -2,-30 -5,-56 -11,-76 -5,-19 -13,-35 -24,-46 -10,-12 -24,-22 -42,-33 -44,-24 -90,-36 -137,-36l-72 0 0 -57 865 0 0 57 -72 0c-84,0 -143,25 -180,75 -25,32 -37,110 -37,237l0 1345c0,49 1,89 3,120 2,30 6,56 11,75 6,19 14,35 24,47 11,12 26,23 44,33 42,25 87,37 135,37l72 0z"/>
  <path id="4" class="fil1" d="M9149 8343l-1325 1957 827 0c127,0 224,-29 292,-86 68,-57 129,-173 181,-348l49 9 -94 551 -1643 0 0 -57 1294 -1900 -645 0c-53,0 -99,3 -136,9 -37,6 -69,15 -95,27 -27,12 -49,26 -66,43 -18,18 -33,39 -46,62 -25,43 -47,128 -68,255l-58 0 43 -522 1490 0z"/>
  <path id="5" class="fil1" d="M10371 8296c261,0 487,103 680,309 192,204 288,460 288,767 0,316 -96,578 -290,788 -193,208 -427,313 -702,313 -278,0 -512,-102 -700,-306 -189,-203 -283,-467 -283,-791 0,-330 110,-600 328,-809 189,-181 415,-271 679,-271zm-28 113c-102,0 -193,23 -272,68 -79,44 -146,109 -200,192 -54,83 -95,184 -123,303 -28,119 -42,251 -42,399 0,146 13,280 41,401 28,122 69,226 123,314 54,87 120,155 199,204 80,48 172,73 275,73 94,0 180,-19 260,-55 79,-37 148,-94 207,-171 58,-78 104,-176 137,-296 33,-120 50,-262 50,-427 0,-159 -14,-300 -41,-425 -27,-124 -68,-229 -123,-315 -55,-86 -124,-151 -205,-197 -82,-45 -177,-68 -286,-68z"/>
  <path id="6" class="fil1" d="M11419 8343l545 0 1234 1563 0 -1202c0,-128 -13,-208 -41,-240 -38,-43 -96,-64 -175,-64l-70 0 0 -57 704 0 0 57 -72 0c-85,0 -146,26 -182,79 -21,32 -33,107 -33,225l0 1756 -54 0 -1329 -1677 0 1282c0,128 13,208 40,239 37,43 95,65 175,65l71 0 0 57 -704 0 0 -57 71 0c86,0 147,-27 183,-80 22,-32 33,-107 33,-224l0 -1449c-30,-36 -54,-64 -74,-86 -20,-21 -39,-39 -57,-53 -17,-13 -37,-25 -58,-34 -20,-8 -46,-18 -77,-30 -28,-9 -72,-13 -130,-13l0 -57z"/>
  <path id="7" class="fil1" d="M15423 8343l0 488 -33 0c-8,-65 -22,-120 -40,-166 -18,-45 -43,-82 -72,-110 -30,-28 -67,-48 -109,-61 -43,-13 -93,-19 -149,-19l-285 0 0 1590c0,128 13,208 40,239 36,43 94,65 173,65l70 0 0 57 -856 0 0 -57 71 0c86,0 147,-27 182,-80 22,-32 33,-106 33,-224l0 -1590 -242 0c-61,0 -115,5 -160,14 -46,9 -84,26 -116,52 -32,25 -57,61 -77,108 -20,47 -35,107 -45,182l-58 0 0 -488 1673 0z"/>
  <path id="8" class="fil1" d="M16157 8456l0 821 445 0c64,0 116,-5 156,-18 41,-11 73,-29 95,-55 23,-25 39,-56 48,-94 9,-38 15,-83 18,-135l55 0 0 724 -55 0c-7,-51 -14,-92 -21,-124 -7,-32 -14,-56 -21,-70 -9,-19 -20,-34 -34,-48 -14,-14 -32,-26 -54,-36 -21,-10 -48,-18 -79,-23 -31,-5 -67,-7 -108,-7l-445 0 0 687c0,92 4,148 12,170 4,9 9,18 15,26 6,8 15,15 26,20 11,6 26,10 45,14 18,3 41,4 69,4l342 0c59,0 108,-1 147,-5 39,-4 73,-10 102,-18 30,-9 56,-22 78,-38 22,-15 46,-36 71,-60 30,-31 62,-71 94,-118 31,-49 63,-105 95,-170l59 0 -174 523 -1557 0 0 -57 72 0c19,0 38,-2 60,-6 21,-5 40,-11 59,-20 18,-9 35,-21 49,-35 15,-14 26,-30 32,-48 12,-32 18,-99 18,-201l0 -1354c0,-131 -13,-212 -39,-244 -36,-41 -95,-61 -179,-61l-72 0 0 -57 1557 0 0 456 -36 0c-11,-55 -22,-101 -33,-137 -11,-35 -23,-65 -37,-89 -14,-23 -30,-42 -48,-56 -18,-14 -39,-27 -64,-38 -40,-15 -110,-23 -209,-23l-554 0z"/>
  <polygon class="fil1" points="2652,11010 3272,11010 3250,11093 2762,11093 2685,11383 3097,11383 3075,11467 2664,11467 2561,11846 2428,11846 "/>
  <polygon id="1" class="fil1" points="4637,11010 4770,11010 4568,11762 5041,11762 5018,11846 4412,11846 "/>
  <path id="2" class="fil1" d="M6733 11861c-63,0 -119,-8 -167,-24 -49,-17 -89,-41 -122,-71 -33,-31 -57,-68 -74,-111 -18,-43 -26,-91 -26,-144 0,-64 13,-127 40,-188 27,-62 64,-117 112,-166 48,-49 106,-88 172,-118 67,-30 141,-45 222,-45 63,0 118,9 167,25 49,17 89,40 122,71 32,31 57,67 74,110 17,43 26,91 26,144 0,64 -14,126 -40,188 -27,63 -65,118 -113,167 -48,49 -105,88 -173,118 -67,30 -141,44 -220,44zm150 -781c-60,0 -115,13 -165,38 -50,26 -92,59 -128,100 -35,40 -62,86 -82,136 -19,50 -29,100 -29,149 0,41 5,78 16,112 10,33 25,62 47,86 21,24 48,42 81,55 33,13 72,20 116,20 61,0 116,-13 166,-39 49,-26 92,-59 127,-100 36,-41 63,-86 82,-136 20,-51 29,-100 29,-148 0,-83 -21,-149 -63,-199 -42,-49 -108,-74 -197,-74z"/>
  <path id="3" class="fil1" d="M8979 11411c107,0 190,-17 247,-52 57,-35 85,-82 85,-141 0,-46 -21,-79 -64,-99 -43,-20 -105,-30 -187,-30l-165 0 -85 322 169 0zm113 -401c53,0 100,3 143,11 43,7 80,18 111,34 30,16 54,36 71,61 18,24 26,54 26,89 0,38 -8,73 -25,104 -16,32 -39,59 -69,83 -30,23 -65,42 -104,58 -40,15 -84,26 -132,33l197 363 -143 0 -184 -354 -196 0 -94 354 -133 0 224 -836 308 0z"/>
  <polygon id="4" class="fil1" points="10909,11010 11042,11010 10818,11846 10685,11846 "/>
  <path id="5" class="fil1" d="M12515 11010l317 0c52,0 100,4 144,11 43,8 80,20 111,37 31,16 55,37 72,63 17,25 26,56 26,93 0,51 -13,95 -37,132 -25,38 -59,69 -102,93 -43,24 -95,42 -155,53 -60,12 -126,18 -198,18l-180 0 -89 336 -133 0 224 -836zm183 419c117,0 205,-17 265,-51 60,-34 90,-84 90,-152 0,-48 -22,-83 -65,-105 -44,-21 -106,-32 -189,-32l-173 0 -90 340 162 0z"/>
  <path id="6" class="fil1" d="M14864 11508l-17 -143c-5,-44 -11,-88 -16,-133 -5,-44 -10,-91 -15,-139l-6 0c-30,48 -59,94 -89,138 -29,44 -59,89 -91,134l-99 143 333 0zm11 77l-398 0 -179 261 -148 0 610 -836 154 0 130 836 -138 0 -31 -261z"/>
  <line class="fil2 str0" x1="235" y1="10743" x2="17236" y2= "10743" />
 </g>
</svg>
